<?xml version="1.0" encoding="UTF-8"?>
<svg width="25px" height="25px" viewBox="0 0 25 25" version="1.1" xmlns="http://www.w3.org/2000/svg" xmlns:xlink="http://www.w3.org/1999/xlink">
    <!-- Generator: Sketch 45.2 (43514) - http://www.bohemiancoding.com/sketch -->
    <title>Group</title>
    <desc>Created with Sketch.</desc>
    <defs></defs>
    <g id="Welcome" stroke="none" stroke-width="1" fill="none" fill-rule="evenodd">
        <g id="Desktop-HD-Copy" transform="translate(-1261.000000, -1246.000000)" fill-rule="nonzero" fill="#DCDFE5">
            <g id="Group" transform="translate(1261.000000, 1246.000000)">
                <g id="002-squares" transform="translate(0.124861, 0.124861)">
                    <polygon id="Shape" points="9.73375833 0 1.62227686 0 0 0 0 1.62227686 0 9.73375833 0 11.3560352 1.62227686 11.3560352 9.73375833 11.3560352 11.3560352 11.3560352 11.3560352 9.73375833 11.3560352 1.62227686 11.3560352 0"></polygon>
                    <polygon id="Shape" points="23.2528617 0 15.1413803 0 13.5191034 0 13.5191034 1.62227686 13.5191034 9.73375833 13.5191034 11.3560352 15.1413803 11.3560352 23.2528617 11.3560352 24.8751386 11.3560352 24.8751386 9.73375833 24.8751386 1.62227686 24.8751386 0"></polygon>
                    <polygon id="Shape" points="9.73375833 13.5191034 1.62227686 13.5191034 0 13.5191034 0 15.1413803 0 23.2528617 0 24.8751386 1.62227686 24.8751386 9.73375833 24.8751386 11.3560352 24.8751386 11.3560352 23.2528617 11.3560352 15.1413803 11.3560352 13.5191034"></polygon>
                    <polygon id="Shape" points="23.2528617 13.5191034 15.1413803 13.5191034 13.5191034 13.5191034 13.5191034 15.1413803 13.5191034 23.2528617 13.5191034 24.8751386 15.1413803 24.8751386 23.2528617 24.8751386 24.8751386 24.8751386 24.8751386 23.2528617 24.8751386 15.1413803 24.8751386 13.5191034"></polygon>
                </g>
            </g>
        </g>
    </g>
</svg>