<?xml version="1.0" encoding="utf-8"?>
<!-- Generator: Adobe Illustrator 16.0.3, SVG Export Plug-In . SVG Version: 6.00 Build 0)  -->
<!DOCTYPE svg PUBLIC "-//W3C//DTD SVG 1.1//EN" "http://www.w3.org/Graphics/SVG/1.1/DTD/svg11.dtd">
<svg version="1.1" id="Layer_1" xmlns="http://www.w3.org/2000/svg" xmlns:xlink="http://www.w3.org/1999/xlink" x="0px" y="0px"
	 width="300px" height="300px" viewBox="0 0 300 300" enable-background="new 0 0 300 300" xml:space="preserve">
<g id="Layer_2" display="none">
	<g display="inline" opacity="0.5">
	</g>
</g>
<path fill="#9EA4AB" d="M28.774,152.241V76.129H16.476v208.245v4.17v7.823l255.555-147.13v76.808h12.297v-83.888v-13.56v-19.314
	V97.365V80.181V65.943V48.767V34.528V19.233v-0.205v-6.147V5.5L28.774,152.241z M272.036,134.875l-0.005,0.002v0.872L28.774,277.218
	v-16.584l243.262-144.071V134.875z M272.036,103.463l-0.005,0.003v1.072L28.774,246.42v-17.188L272.036,87.35V103.463z
	 M272.036,72.042l-0.005,0.003v1.071L28.774,214.999v-17.18L272.036,55.936V72.042z M272.036,40.627l-0.005,0.003v1.07
	L28.774,183.585v-17.169L272.036,26.313V40.627z"/>
</svg>
