<?xml version="1.0" encoding="utf-8"?>
<!-- Generator: Adobe Illustrator 16.0.3, SVG Export Plug-In . SVG Version: 6.00 Build 0)  -->
<!DOCTYPE svg PUBLIC "-//W3C//DTD SVG 1.1//EN" "http://www.w3.org/Graphics/SVG/1.1/DTD/svg11.dtd">
<svg version="1.1" xmlns="http://www.w3.org/2000/svg" xmlns:xlink="http://www.w3.org/1999/xlink" x="0px" y="0px" width="300px"
	 height="300px" viewBox="0 0 300 300" enable-background="new 0 0 300 300" xml:space="preserve">
<g id="Layer_2" display="none">
	<g display="inline" opacity="0.5">
		
			<image overflow="visible" width="655" height="406" xlink:href="159BAE6.jpg"  transform="matrix(0.4778 0 0 -0.478 -7.6904 263.833)">
		</image>
	</g>
</g>
<g id="Layer_1">
	<path d="M78.854,148.473v-29.253h-4.727v80.037v1.603v3.006l143.688-82.725v29.59h4.726V71.166v-2.363v-2.836L78.854,148.473z
		 M78.854,178.065l138.962-81.051v6.604L78.854,184.67V178.065z M217.816,91.542L78.854,172.594v-6.604L217.816,84.94V91.542z
		 M78.854,196.507v-6.374l138.962-82.3v7.858L78.854,196.507z M217.816,79.468L78.854,160.519v-6.598l138.962-80.033V79.468z"/>
</g>
</svg>
